<?xml version="1.0" encoding="utf-8"?>
<!DOCTYPE svg PUBLIC "-//W3C//DTD SVG 1.1//EN" "http://www.w3.org/Graphics/SVG/1.1/DTD/svg11.dtd">
<svg version="1.1" id="图形" xmlns="http://www.w3.org/2000/svg" xmlns:xlink="http://www.w3.org/1999/xlink" x="0px" y="0px" width="1352px" height="1024px" viewBox="0 0 1352 1024" enable-background="new 0 0 1352 1024" xml:space="preserve">
  <path fill="#007AFF" d="M1199.98112 779.9904l-511.98976 0c-12.697346 0-23.674407-4.362153-32.0096-11.591448-8.314714 7.229295-19.291774 11.591448-32.0096 11.591448l-511.98976 0c-27.811284 0-48.00416-20.192876-48.00416-48.00416l0-895.98208c0-27.811284 20.192876-48.00416 48.00416-48.00416l511.98976 0c12.697346 0 23.674407 4.341673 32.0096 11.591448 8.314714-7.229295 19.291774-11.591448 32.0096-11.591448l511.98976 0c27.811284 0 48.00416 20.192876 48.00416 48.00416l0 895.98208c0 27.811284-20.192876 48.00416-48.00416 48.00416zM623.99264-179.9904l-511.98976 0c-10.01452 0-15.99456 5.98004-15.99456 15.99456l0 895.98208c0 10.01452 5.98004 15.99456 15.99456 15.99456l511.98976 0c10.01452 0 15.99456-5.98004 15.99456-15.99456l0-895.98208c0-10.01452-5.98004-15.99456-15.99456-15.99456zM1215.97568-163.97536c0-10.01452-5.98004-15.99456-15.99456-15.99456l-511.98976 0c-10.01452 0-15.99456 5.98004-15.99456 15.99456l0 895.98208c0 10.01452 5.98004 15.99456 15.99456 15.99456l511.98976 0c10.01452 0 15.99456-5.98004 15.99456-15.99456l0-895.98208zM1295.968961 715.99168c-8.826703 0-15.99456-7.167857-15.99456-15.99456l0-831.98336c0-8.826703 7.167857-15.99456 15.99456-15.99456s15.99456 7.167857 15.99456 15.99456l0 831.98336c0 8.826703-7.167857 15.99456-15.99456 15.99456zM15.99456-147.9808c8.826703 0 15.99456 7.167857 15.99456 15.99456l0 831.98336c0 8.826703-7.167857 15.99456-15.99456 15.99456s-15.99456-7.167857-15.99456-15.99456l0-831.98336c0-8.826703 7.167857-15.99456 15.99456-15.99456zM559.99392 492.0064l-383.99232 0c-8.826703 0-15.99456-7.167857-15.99456-15.99456s7.167857-15.99456 15.99456-15.99456l383.99232 0c8.826703 0 15.99456 7.167857 15.99456 15.99456s-7.167857 15.99456-15.99456 15.99456zM559.99392 364.00896l-383.99232 0c-8.826703 0-15.99456-7.167857-15.99456-15.99456s7.167857-15.99456 15.99456-15.99456l383.99232 0c8.826703 0 15.99456 7.167857 15.99456 15.99456s-7.167857 15.99456-15.99456 15.99456zM559.99392 620.00384l-383.99232 0c-8.826703 0-15.99456-7.167857-15.99456-15.99456s7.167857-15.99456 15.99456-15.99456l383.99232 0c8.826703 0 15.99456 7.167857 15.99456 15.99456s-7.167857 15.99456-15.99456 15.99456zM559.99392 236.01152l-383.99232 0c-8.826703 0-15.99456-7.167857-15.99456-15.99456s7.167857-15.99456 15.99456-15.99456l383.99232 0c8.826703 0 15.99456 7.167857 15.99456 15.99456s-7.167857 15.99456-15.99456 15.99456zM559.99392 108.01408l-383.99232 0c-8.826703 0-15.99456-7.167857-15.99456-15.99456s7.167857-15.99456 15.99456-15.99456l383.99232 0c8.826703 0 15.99456 7.167857 15.99456 15.99456s-7.167857 15.99456-15.99456 15.99456zM559.99392-19.98336l-383.99232 0c-8.826703 0-15.99456-7.167857-15.99456-15.99456s7.167857-15.99456 15.99456-15.99456l383.99232 0c8.826703 0 15.99456 7.167857 15.99456 15.99456s-7.167857 15.99456-15.99456 15.99456zM1135.9824 492.0064l-383.99232 0c-8.826703 0-15.99456-7.167857-15.99456-15.99456s7.167857-15.99456 15.99456-15.99456l383.99232 0c8.826703 0 15.99456 7.167857 15.99456 15.99456s-7.167857 15.99456-15.99456 15.99456zM1135.9824 364.00896l-383.99232 0c-8.826703 0-15.99456-7.167857-15.99456-15.99456s7.167857-15.99456 15.99456-15.99456l383.99232 0c8.826703 0 15.99456 7.167857 15.99456 15.99456s-7.167857 15.99456-15.99456 15.99456zM1135.9824 620.00384l-383.99232 0c-8.826703 0-15.99456-7.167857-15.99456-15.99456s7.167857-15.99456 15.99456-15.99456l383.99232 0c8.826703 0 15.99456 7.167857 15.99456 15.99456s-7.167857 15.99456-15.99456 15.99456zM1135.9824 236.01152l-383.99232 0c-8.826703 0-15.99456-7.167857-15.99456-15.99456s7.167857-15.99456 15.99456-15.99456l383.99232 0c8.826703 0 15.99456 7.167857 15.99456 15.99456s-7.167857 15.99456-15.99456 15.99456zM1135.9824 108.01408l-383.99232 0c-8.826703 0-15.99456-7.167857-15.99456-15.99456s7.167857-15.99456 15.99456-15.99456l383.99232 0c8.826703 0 15.99456 7.167857 15.99456 15.99456s-7.167857 15.99456-15.99456 15.99456zM1135.9824-19.98336l-383.99232 0c-8.826703 0-15.99456-7.167857-15.99456-15.99456s7.167857-15.99456 15.99456-15.99456l383.99232 0c8.826703 0 15.99456 7.167857 15.99456 15.99456s-7.167857 15.99456-15.99456 15.99456z" transform="translate(0, 812) scale(1, -1)"/>
</svg>
