<?xml version="1.0" encoding="utf-8"?>
<!DOCTYPE svg PUBLIC "-//W3C//DTD SVG 1.1//EN" "http://www.w3.org/Graphics/SVG/1.1/DTD/svg11.dtd">
<svg version="1.1" id="图形" xmlns="http://www.w3.org/2000/svg" xmlns:xlink="http://www.w3.org/1999/xlink" x="0px" y="0px" width="1024px" height="1024px" viewBox="0 0 1024 1024" enable-background="new 0 0 1024 1024" xml:space="preserve">
  <path fill="#007AFF" d="M512-212c282.29632 0 512 229.70368 512 512s-229.70368 512-512 512-512-229.70368-512-512 229.70368-512 512-512zM512 779.98976c264.66304 0 480.01024-215.32672 480.01024-480.01024s-215.32672-480.01024-480.01024-480.01024-480.01024 215.32672-480.01024 480.01024 215.32672 480.01024 480.01024 480.01024zM641.9456 115.41376c3.13344-3.13344 7.22944-4.66944 11.32544-4.66944s8.192 1.57696 11.32544 4.66944c6.2464 6.2464 6.2464 16.384 0 22.6304l-152.61696 152.576 0 223.17056c0 8.82688-7.168 15.99488-15.99488 15.99488s-15.99488-7.168-15.99488-15.99488l0-229.7856c0-4.25984 1.69984-8.31488 4.66944-11.32544l157.2864-157.24544zM96.01024 300c0-17.67424 14.336-32.01024 32.01024-32.01024s32.01024 14.336 32.01024 32.01024c0 17.67424-14.336 32.01024-32.01024 32.01024s-32.01024-14.336-32.01024-32.01024zM864.01024 300c0-17.67424 14.336-32.01024 32.01024-32.01024s32.01024 14.336 32.01024 32.01024c0 17.67424-14.336 32.01024-32.01024 32.01024s-32.01024-14.336-32.01024-32.01024zM480.01024 684c0-17.67424 14.336-32.01024 32.01024-32.01024s32.01024 14.336 32.01024 32.01024c0 17.67424-14.336 32.01024-32.01024 32.01024s-32.01024-14.336-32.01024-32.01024zM480.01024-84c0-17.67424 14.336-32.01024 32.01024-32.01024s32.01024 14.336 32.01024 32.01024c0 17.67424-14.336 32.01024-32.01024 32.01024s-32.01024-14.336-32.01024-32.01024zM224.01024 556c0-17.67424 14.336-32.01024 32.01024-32.01024s32.01024 14.336 32.01024 32.01024c0 17.67424-14.336 32.01024-32.01024 32.01024s-32.01024-14.336-32.01024-32.01024zM736.01024 44c0-17.67424 14.336-32.01024 32.01024-32.01024s32.01024 14.336 32.01024 32.01024c0 17.67424-14.336 32.01024-32.01024 32.01024s-32.01024-14.336-32.01024-32.01024zM768 556c0-17.67424 14.336-32.01024 32.01024-32.01024s32.01024 14.336 32.01024 32.01024c0 17.67424-14.336 32.01024-32.01024 32.01024s-32.01024-14.336-32.01024-32.01024zM224.01024 44c0-17.67424 14.336-32.01024 32.01024-32.01024s32.01024 14.336 32.01024 32.01024c0 17.67424-14.336 32.01024-32.01024 32.01024s-32.01024-14.336-32.01024-32.01024z" transform="translate(0, 812) scale(1, -1)"/>
</svg>
