<?xml version="1.0" encoding="utf-8"?>
<!DOCTYPE svg PUBLIC "-//W3C//DTD SVG 1.1//EN" "http://www.w3.org/Graphics/SVG/1.1/DTD/svg11.dtd">
<svg version="1.1" id="图形" xmlns="http://www.w3.org/2000/svg" xmlns:xlink="http://www.w3.org/1999/xlink" x="0px" y="0px" width="1024px" height="1024px" viewBox="0 0 1024 1024" enable-background="new 0 0 1024 1024" xml:space="preserve">
  <path fill="#272636" d="M433.282171 764.060151 94.944396 764.060151c-23.327288 0-42.304502-18.975167-42.304502-42.300408l0-338.341868c0-23.324218 18.977213-42.300408 42.304502-42.300408L433.282171 341.117466c23.324218 0 42.300408 18.97619 42.300408 42.300408L475.582579 721.759743C475.581556 745.084984 456.606389 764.060151 433.282171 764.060151zM438.742533 383.417875c0-3.01159-2.449795-5.461385-5.461385-5.461385L94.944396 377.95649c-3.013637 0-5.465478 2.450818-5.465478 5.461385L89.478917 721.759743c0 3.01159 2.451842 5.461385 5.465478 5.461385L433.282171 727.221128c3.01159 0 5.461385-2.449795 5.461385-5.461385L438.743556 383.417875zM322.914504 638.112648l-117.608581 0c-14.733563 0-26.719548-11.985986-26.719548-26.719548l0-117.608581c0-14.735609 11.985986-26.724665 26.719548-26.724665l117.608581 0c14.735609 0 26.724665 11.989055 26.724665 26.724665l0 117.608581C349.640192 626.126662 337.651137 638.112648 322.914504 638.112648zM312.801169 503.898877l-97.374748 0 0 97.374748 97.374748 0L312.801169 503.898877zM322.914504 136.393805l-117.608581 0c-14.733563 0-26.719548-11.989055-26.719548-26.724665l0-117.608581c0-14.732539 11.985986-26.719548 26.719548-26.719548l117.608581 0c14.735609 0 26.724665 11.987009 26.724665 26.719548l0 117.608581C349.640192 124.40475 337.651137 136.393805 322.914504 136.393805zM312.801169 2.180034l-97.374748 0 0 97.374748 97.374748 0L312.801169 2.180034zM699.123818 467.059853l117.608581 0c14.735609 0 26.724665 11.989055 26.724665 26.724665l0 117.608581c0 14.733563-11.989055 26.719548-26.724665 26.719548l-117.608581 0c-14.732539 0-26.719548-11.985986-26.719548-26.719548l0-117.608581C672.40427 479.048909 684.391279 467.059853 699.123818 467.059853zM709.243293 601.273624l97.374748 0 0-97.374748-97.374748 0L709.243293 601.273624zM433.282171 265.564723 94.944396 265.564723c-23.327288 0-42.304502-18.97619-42.304502-42.300408L52.639894-115.077553c0-23.325241 18.977213-42.301432 42.304502-42.301432L433.282171-157.378985c23.324218 0 42.300408 18.97619 42.300408 42.301432L475.582579 223.264315C475.581556 246.588533 456.606389 265.564723 433.282171 265.564723zM438.742533-115.077553c0-3.01159-2.449795-5.462408-5.461385-5.462408L94.944396-120.539962c-3.013637 0-5.465478 2.450818-5.465478 5.462408L89.478917 223.264315c0 3.010567 2.451842 5.461385 5.465478 5.461385L433.282171 228.7257c3.01159 0 5.461385-2.450818 5.461385-5.461385L438.743556-115.077553zM590.849836 264.223169c-23.325241 0-42.301432-18.978237-42.301432-42.305525l0-194.649212c0-10.172687 8.246825-18.419512 18.419512-18.419512s18.419512 8.246825 18.419512 18.419512L585.387427 221.917644c0 3.013637 2.450818 5.466502 5.462408 5.466502l204.825992 0c10.172687 0 18.419512 8.246825 18.419512 18.419512s-8.246825 18.419512-18.419512 18.419512L590.849836 264.223169zM588.757175 341.117466l338.341868 0c23.325241 0 42.301432 18.97619 42.301432 42.300408L969.400474 721.759743c0 23.324218-18.97619 42.300408-42.301432 42.300408L588.757175 764.060151c-23.324218 0-42.300408-18.975167-42.300408-42.300408l0-338.341868C546.456766 360.093657 565.432956 341.117466 588.757175 341.117466zM583.295789 721.759743c0 3.01159 2.450818 5.461385 5.461385 5.461385l338.341868 0c3.01159 0 5.462408-2.449795 5.462408-5.461385l0-338.341868c0-3.01159-2.450818-5.461385-5.462408-5.461385L588.757175 377.95649c-3.010567 0-5.461385 2.450818-5.461385 5.461385L583.295789 721.759743zM969.676767 245.803657c0 10.172687-8.246825 18.419512-18.419512 18.419512l-67.50444 0c-10.172687 0-18.419512-8.246825-18.419512-18.419512s8.246825-18.419512 18.419512-18.419512l49.084928 0 0-71.009264L779.708158 156.374882c-10.172687 0-18.419512-8.246825-18.419512-18.419512s8.246825-18.419512 18.419512-18.419512l171.549098 0c10.172687 0 18.419512 8.246825 18.419512 18.419512 0 0.076748-0.010233 0.151449-0.011256 0.228197 0.001023 0.076748 0.011256 0.150426 0.011256 0.228197L969.676767 245.803657zM630.202099-121.142689l-44.813648 0 0 51.2922c0 10.172687-8.246825 18.419512-18.419512 18.419512s-18.419512-8.246825-18.419512-18.419512l0-69.711711c0-10.172687 8.246825-18.419512 18.419512-18.419512l63.23316 0c10.172687 0 18.419512 8.246825 18.419512 18.419512S640.374786-121.142689 630.202099-121.142689zM834.04981 21.640248c0 10.172687-8.246825 18.419512-18.419512 18.419512L699.257871 40.059759c-10.172687 0-18.419512-8.246825-18.419512-18.419512l0-163.013701c0-10.172687 8.246825-18.419512 18.419512-18.419512s18.419512 8.246825 18.419512 18.419512L717.677383 3.220736 815.630299 3.220736C825.802986 3.220736 834.04981 11.467561 834.04981 21.640248zM951.060781 88.574706c-10.172687 0-18.419512-8.246825-18.419512-18.419512l0-194.301288L765.943666-124.146093c-10.172687 0-18.419512-8.246825-18.419512-18.419512s8.246825-18.419512 18.419512-18.419512l185.117115 0c10.172687 0 18.419512 8.246825 18.419512 18.419512L969.480292 70.155195C969.480292 80.327882 961.234491 88.574706 951.060781 88.574706zM655.979182 188.379806c-10.172687 0-18.419512-8.246825-18.419512-18.419512l0-59.869552c0-10.172687 8.246825-18.419512 18.419512-18.419512s18.419512 8.246825 18.419512 18.419512l0 59.869552C674.398694 180.132982 666.151869 188.379806 655.979182 188.379806z" transform="translate(0, 812) scale(1, -1)"/>
</svg>
